<?xml version="1.0" encoding="UTF-8" standalone="no"?>
<!-- Created with Inkscape (http://www.inkscape.org/) -->

<svg
   xmlns:dc="http://purl.org/dc/elements/1.1/"
   xmlns:cc="http://creativecommons.org/ns#"
   xmlns:rdf="http://www.w3.org/1999/02/22-rdf-syntax-ns#"
   xmlns:svg="http://www.w3.org/2000/svg"
   xmlns="http://www.w3.org/2000/svg"
   xmlns:sodipodi="http://sodipodi.sourceforge.net/DTD/sodipodi-0.dtd"
   xmlns:inkscape="http://www.inkscape.org/namespaces/inkscape"
   width="522.59595"
   height="476.70084"
   viewBox="0 0 138.27018 126.12709"
   version="1.1"
   id="svg8"
   inkscape:version="0.92.3 (2405546, 2018-03-11)"
   sodipodi:docname="power-views-logo.svg">
  <defs
     id="defs2" />
  <sodipodi:namedview
     id="base"
     pagecolor="#ffffff"
     bordercolor="#666666"
     borderopacity="1.0"
     inkscape:pageopacity="0.0"
     inkscape:pageshadow="2"
     inkscape:zoom="1"
     inkscape:cx="302.90498"
     inkscape:cy="275.73322"
     inkscape:document-units="mm"
     inkscape:current-layer="layer1"
     showgrid="false"
     units="px"
     inkscape:window-width="1920"
     inkscape:window-height="986"
     inkscape:window-x="-11"
     inkscape:window-y="-11"
     inkscape:window-maximized="1"
     fit-margin-top="0"
     fit-margin-left="0"
     fit-margin-right="0"
     fit-margin-bottom="0" />
  <metadata
     id="metadata5">
    <rdf:RDF>
      <cc:Work
         rdf:about="">
        <dc:format>image/svg+xml</dc:format>
        <dc:type
           rdf:resource="http://purl.org/dc/dcmitype/StillImage" />
        <dc:title></dc:title>
      </cc:Work>
    </rdf:RDF>
  </metadata>
  <g
     inkscape:label="Ebene 1"
     inkscape:groupmode="layer"
     id="layer1"
     transform="translate(28.956275,-193.87099)">
    <g
       id="g842"
       inkscape:export-xdpi="300"
       inkscape:export-ydpi="300"
       transform="matrix(1.9008168,0,0,1.9008168,-36.19375,-231.45095)">
      <circle
         r="31.59881"
         cy="256.93454"
         cx="40.065475"
         id="path828"
         style="opacity:1;fill:#fef7fe;fill-opacity:1;stroke:#ab4aba;stroke-width:3.15653777;stroke-linecap:round;stroke-linejoin:round;stroke-miterlimit:4;stroke-dasharray:none;stroke-dashoffset:0;stroke-opacity:1" />
      <path
         sodipodi:nodetypes="czzzszzzzc"
         inkscape:connector-curvature="0"
         id="path832"
         d="m 4.9892856,256.78333 c 0,0 5.8994184,-6.86843 9.2226184,-6.50119 3.3232,0.36724 3.391834,4.28635 5.896429,6.50119 2.504595,2.21484 5.639092,7.01405 9.222619,6.50119 3.583527,-0.51286 2.554226,-10.10482 5.442857,-9.67619 3.251346,0.48244 2.797198,-2.903 6.501191,-3.02381 3.703993,-0.12081 8.027971,8.93715 12.246428,8.92024 4.218457,-0.0169 5.008133,-6.41536 8.164286,-6.04762 3.156153,0.36774 2.84217,6.1032 5.745238,6.80357 2.903068,0.70037 8.315476,-3.47738 8.315476,-3.47738"
         style="fill:#f2d1f3;fill-opacity:1;stroke:#ab4aba;stroke-width:2.6304481;stroke-linecap:butt;stroke-linejoin:miter;stroke-miterlimit:4;stroke-dasharray:none;stroke-opacity:1"
         inkscape:export-xdpi="300"
         inkscape:export-ydpi="300" />
      <path
         style="fill:#d1f3eb;fill-opacity:1;stroke:#4abab2;stroke-width:2.6304481;stroke-linecap:butt;stroke-linejoin:miter;stroke-miterlimit:4;stroke-dasharray:none;stroke-opacity:1"
         d="m 4.9892856,243.55408 c 0,0 5.8994184,-6.86843 9.2226184,-6.50119 3.3232,0.36724 3.391834,4.28635 5.896429,6.50119 2.504595,2.21484 3.220044,3.53667 6.803571,3.02381 3.583527,-0.51286 4.973274,-6.62744 7.861905,-6.19881 3.251346,0.48244 6.274579,-1.2399 9.978572,-1.36071 3.703993,-0.12081 4.55059,7.27405 8.769047,7.25714 4.218457,-0.0169 3.647419,-5.65941 6.803572,-5.29167 3.156153,0.36774 4.202884,5.34725 7.105952,6.04762 2.903068,0.70037 8.315476,-3.47738 8.315476,-3.47738"
         id="path834"
         inkscape:connector-curvature="0"
         sodipodi:nodetypes="czzzszzzzc"
         inkscape:export-xdpi="300"
         inkscape:export-ydpi="300" />
      <path
         sodipodi:nodetypes="czzzszzzzc"
         inkscape:connector-curvature="0"
         id="path836"
         d="m 72.949295,272.20485 c 0,0 -3.48037,-7.47319 -6.80357,-7.10595 -3.3232,0.36724 -3.391834,4.28635 -5.896429,6.50119 -2.504595,2.21484 -5.639092,7.01405 -9.222619,6.50119 -3.583527,-0.51286 -2.554226,-10.10482 -5.442857,-9.67619 -3.251346,0.48244 -5.518627,-1.3911 -9.22262,-1.51191 -3.703993,-0.12081 -5.306542,7.42525 -9.524999,7.40834 -4.218457,-0.0169 -5.008133,-6.41536 -8.164286,-6.04762 -3.156153,0.36774 -2.84217,6.1032 -5.745238,6.80357 -2.903068,0.70037 -8.315476,-3.47738 -8.315476,-3.47738"
         style="fill:#d1e2f3;fill-opacity:1;stroke:#4a73ba;stroke-width:2.6304481;stroke-linecap:butt;stroke-linejoin:miter;stroke-miterlimit:4;stroke-dasharray:none;stroke-opacity:1"
         inkscape:export-xdpi="300"
         inkscape:export-ydpi="300" />
    </g>
  </g>
</svg>
